<mxfile host="app.diagrams.net" modified="2023-09-08T19:26:25.250Z" agent="Mozilla/5.0 (Windows NT 10.0; Win64; x64) AppleWebKit/537.36 (KHTML, like Gecko) Chrome/115.0.0.0 Safari/537.36 OPR/101.0.0.0" version="21.7.4" etag="5tN9n3k_9gX4Cvbzkqcp" type="github">
  <diagram name="Page-1" id="WzL-IuSHchVxtsmhTOV1">
    <mxGraphModel>
      <root>
        <mxCell id="0" />
        <mxCell id="1" parent="0" />
      </root>
    </mxGraphModel>
  </diagram>
</mxfile>
